<?xml version="1.0" encoding="utf-8"?>
<!-- Generator: Adobe Illustrator 24.0.1, SVG Export Plug-In . SVG Version: 6.00 Build 0)  -->
<svg version="1.1" id="Layer_1" xmlns="http://www.w3.org/2000/svg" xmlns:xlink="http://www.w3.org/1999/xlink" x="0px" y="0px"
	 viewBox="0 0 956 1042.6" style="enable-background:new 0 0 956 1042.6;" xml:space="preserve">
<style type="text/css">
	.st0{fill:#203B71;}
	.st1{fill:#CB9700;}
	.st2{enable-background:new    ;}
</style>
<g>
	<g>
		<g>
			<path class="st0" d="M774.9,327.8H639.4h-93.7h-42.4c-32.4,0-63.6,4.8-93.1,13.7c-33.9,10.2-65.5,25.9-93.7,45.9
				C234.5,445.8,181,541.7,181,650v213.5h135.5V650.1c0-69.1,37.7-129.6,93.7-161.9c27.4-15.8,59.2-24.9,93.1-24.9h42.4h93.7h135.5
				V327.8z"/>
			<rect x="639.4" y="491.2" class="st1" width="135.5" height="372.4"/>
			<path class="st1" d="M410.2,517.6v346h135.5V492.5C545.7,492.5,463.2,482,410.2,517.6z"/>
			<rect x="639.4" y="65.2" class="st1" width="135.5" height="234.7"/>
			<path class="st1" d="M316.5,354.2v-289H181v447.1C236.5,393.3,314.8,355.4,316.5,354.2z"/>
		</g>
		<path class="st1" d="M933.6,920.1H22.3V8.7h911.4v911.4H933.6z M44.6,897.8h866.8V31H44.6V897.8z"/>
	</g>
	<g class="st2">
		<path class="st0" d="M84.1,1030.2H68.7v-34h-31v34H22.3v-74.3h15.4v27.6h31v-27.6h15.4V1030.2z"/>
		<path class="st0" d="M209.1,1030.2h-14.8v-56.4l-18.1,38.6h-9.8l-18.2-38.6v56.4h-14v-74.3h18l19.4,40.9l19.5-40.9h17.9V1030.2z"
			/>
		<path class="st0" d="M326.5,1030.2h-19l-23.1-28.7h-10v28.7H259v-74.3h28.6c8.8,0,15.5,1.7,20.2,5.2c4.7,3.5,7,8.4,7,14.7
			c0,5.3-1.3,9.8-3.8,13.5s-6.4,6.6-11.4,8.7L326.5,1030.2z M299.3,978.2c0-7.1-5.4-10.7-16.1-10.7h-8.9v23.4h8.1
			c5.9,0,10.2-1,12.9-3.1C298,985.7,299.3,982.5,299.3,978.2z"/>
		<path class="st0" d="M497.6,1024.8c-3,1.9-7.2,3.5-12.8,4.9c-5.5,1.4-10.9,2.1-16,2.1c-8.1,0-15.3-1.6-21.4-4.7
			c-6.1-3.1-10.8-7.7-14.1-13.5c-3.3-5.9-4.9-12.7-4.9-20.5c0-7.5,1.6-14.1,4.8-20c3.2-5.9,7.8-10.4,13.8-13.6
			c6-3.2,12.9-4.8,20.6-4.8c10.2,0,19.6,2.1,28.2,6.4v13.4h-1.5c-3.7-2.4-7.9-4.2-12.5-5.6c-4.7-1.4-9.3-2.1-13.9-2.1
			c-7.6,0-13.4,2.3-17.5,6.9c-4.1,4.6-6.2,11-6.2,19.3c0,8.9,2,15.6,6.1,20.2c4.1,4.6,10.2,6.9,18.3,6.9c6.1,0,11.3-1.1,15.7-3.4
			V1002h-19v-11.1h32.2V1024.8z"/>
		<path class="st0" d="M612.9,1030.2h-19l-23.1-28.7h-10v28.7h-15.4v-74.3h28.6c8.8,0,15.5,1.7,20.2,5.2c4.7,3.5,7,8.4,7,14.7
			c0,5.3-1.3,9.8-3.8,13.5c-2.6,3.7-6.4,6.6-11.4,8.7L612.9,1030.2z M585.7,978.2c0-7.1-5.4-10.7-16.1-10.7h-8.9v23.4h8.1
			c5.9,0,10.2-1,12.9-3.1C584.3,985.7,585.7,982.5,585.7,978.2z"/>
		<path class="st0" d="M683.9,954.4c7.2,0,13.6,1.7,19.3,5s10.1,8,13.2,13.9s4.7,12.6,4.7,19.8c0,7.3-1.5,13.9-4.5,19.9
			s-7.3,10.6-13,13.9c-5.6,3.3-12.2,4.9-19.7,4.9c-7.5,0-14-1.6-19.7-4.9c-5.6-3.3-9.9-7.8-12.9-13.7s-4.5-12.6-4.5-20.1
			c0-7.3,1.5-13.9,4.6-19.9c3.1-6,7.5-10.6,13.1-13.9C670.1,956,676.6,954.4,683.9,954.4z M705,993.3c0-8.5-1.8-15.2-5.5-19.9
			c-3.7-4.7-8.9-7.1-15.6-7.1c-6.6,0-11.8,2.4-15.5,7.1c-3.7,4.8-5.6,11.4-5.6,19.9c0,5.4,0.8,10.1,2.5,14.1
			c1.7,4.1,4.1,7.2,7.3,9.5c3.2,2.2,7,3.3,11.4,3.3c6.7,0,11.9-2.3,15.6-7C703.1,1008.5,705,1001.9,705,993.3z"/>
		<path class="st0" d="M828.6,1003c0,9.1-2.7,16.2-8.1,21.2c-5.4,5.1-13,7.6-22.9,7.6c-9.9,0-17.5-2.5-22.9-7.4
			c-5.4-5-8.1-12.1-8.1-21.4v-47.1H782v44.3c0,12.7,5.2,19.1,15.6,19.1c5.4,0,9.4-1.5,11.9-4.6c2.5-3,3.8-7.8,3.8-14.4v-44.4h15.4
			V1003z"/>
		<path class="st0" d="M932.8,979.1c0,5.1-1.2,9.5-3.7,13.3s-6,6.8-10.5,8.8c-4.5,2-9.7,3.1-15.5,3.1h-9.9v25.9h-15.4v-74.3h22.6
			C922,955.9,932.8,963.7,932.8,979.1z M917.5,979.7c0-4.1-1.4-7.2-4.2-9.4c-2.8-2.1-6.9-3.2-12.2-3.2h-8.2v26.1h7
			c6.1,0,10.5-1.1,13.4-3.4S917.5,984.3,917.5,979.7z"/>
	</g>
</g>
</svg>
