<?xml version="1.0" encoding="utf-8"?>
<svg version="1.1" id="Layer_1" xmlns="http://www.w3.org/2000/svg" xmlns:xlink="http://www.w3.org/1999/xlink" x="0px" y="0px"
	 viewBox="0 0 400 200" style="enable-background:new 0 0 400 200;" xml:space="preserve">
<style type="text/css">
	.st0{fill:#315dca;}
</style>
<g>
	<g>
		<g>
			<g>
				<polygon class="st0" points="320,80 300,60 340,40 350,70 				"/>
				<g>
					<path class="st0" d="M200,150c15-20,22-44,32-67c12-32,27-61,52-82c14-12,17-13,33-22
						c-37,6-59,12-85,45c-22,27-32,61-44,94c-9,24-21,44-39,63l2,8
						C160,180,180,170,200,150z"/>
					<path class="st0" d="M150,180c0,0-8,9-12,13c0.4-0.1,0.8-0.2,1.1-0.4c0.7-0.2,1.3-0.5,2-0.7
						c1.4-0.5,2.8-1,4.3-1.5c0.9-0.4,1.9-0.7,2.8-1c1-0.4,2-0.8,3-1.2c0.3-0.1,0.6-0.2,0.8-0.4L150,180z"/>
				</g>
			</g>
			<g>
				<g>
					<path class="st0" d="M180,170L180,170L180,170L180,170z"/>
					<path class="st0" d="M320,30c19-10,39-21,55-39c8-9,15-20,15-33l0,0c-2,5-9,8-10,14
						C375,15,365,25,350,27c-5,1-11,1-16,0c-12-1-24-4-36-5C270,20,250,20,230,35
						c-18,12-23,19-29,41c12-21,68-27,86-27c-3,3-48,24-51,27c-1,1,5,0,4,1l39-2
						C280,50,295,45,320,30z"/>
					<path class="st0" d="M380,5L380,5L380,5z"/>
				</g>
				<g>
					<path class="st0" d="M160,150c18-25,28-55,39-84c15-39,34-77,65-104c18-15,22-17,41-28
						C280,35,250,50,220,80c-27,34-40,77-55,118c-11,31-26,56-49,80l2,10
						C140,180,160,170,160,150z"/>
					<path class="st0" d="M100,180c0,0-11,11-16,17c0.5-0.2,1-0.3,1.4-0.5c0.8-0.3,1.7-0.6,2.5-0.9c1.8-0.6,3.6-1.3,5.4-1.9
						c1.2-0.4,2.4-0.8,3.5-1.3c1.3-0.5,2.5-1,3.8-1.5c0.4-0.2,0.7-0.3,1.1-0.5L100,180z"/>
				</g>
			</g>
			<g>
				<g>
					<path class="st0" d="M140,150L140,150C140,150,140,150,140,150L140,150z"/>
					<path class="st0" d="M200,30L200,30L200,30z"/>
				</g>
				<g>
					<path class="st0" d="M120,155c13-21,19-45,27-69c10-32,23-62,46-86c13-13,16-14,31-25
						c-40,4-60,21-82,51C120,80,115,100,110,120c-7,25-18,46-34,66l2,8
						C100,180,120,170,120,155z"/>
					<path class="st0" d="M80,180c0,0-8,10-12,14c0.4-0.2,0.7-0.3,1.1-0.5c0.7-0.3,1.3-0.6,2-0.8c1.4-0.6,2.8-1.3,4.1-1.9
						c0.9-0.4,1.8-0.8,2.7-1.3c1-0.5,1.9-1,2.9-1.4c0.3-0.1,0.5-0.3,0.8-0.4L80,180z"/>
				</g>
			</g>
		</g>
	</g>
</g>
</svg>